<svg width="198" height="91" viewBox="0 0 198 91" fill="none" xmlns="http://www.w3.org/2000/svg">
<path opacity="0.1" d="M158.654 0.677734L0.5 32.2718C14.9678 46.7663 22.9998 62.7925 22.9998 79.6461C22.9998 80.5762 22.9754 81.5038 22.9267 82.4288L197.272 90.6777C197.756 87.0202 198 83.3421 198 79.6461C198 53.9904 186.232 29.1893 164.217 6.23097C162.428 4.36604 160.574 2.51475 158.654 0.677734Z" fill="#D9D9D9"/>
<path d="M23.71 81.715C23.7365 81.0268 23.7498 80.3371 23.7498 79.6461C23.7498 62.924 15.9578 47.0649 2.00972 32.735L158.417 1.48984C160.229 3.23092 161.982 4.9845 163.675 6.75006C185.598 29.6118 197.25 54.2363 197.25 79.6461C197.25 83.0788 197.037 86.4961 196.616 89.8959L23.71 81.715Z" stroke="white" stroke-width="1.5"/>
</svg>
